<svg xmlns="http://www.w3.org/2000/svg" xmlns:xlink="http://www.w3.org/1999/xlink" viewBox="0 0 700 700"><defs><clipPath id="b"><path d="M105.7 471.7S20.5 537 83.5 631s139.5 82.7 209.9 4.9S373.7 544.5 465 568s148.9-8 137-76.5c-14-81 86.5-121 6.2-201.3-40-40.2 53.1-291-68.2-380.7s-457-18-457-18z" fill="none"/></clipPath><linearGradient id="a" x1="413.2" y1="181" x2="408.6" y2="549.9" gradientTransform="matrix(1 0 0 -1 0 715)" gradientUnits="userSpaceOnUse"><stop offset="0" stop-color="#c9d4fa"/><stop offset="1" stop-color="#e2e8fa"/></linearGradient><linearGradient id="c" x1="315.1" y1="513.9" x2="504.1" y2="513.9" gradientTransform="matrix(1 0 0 -1 0 576.9)" xlink:href="#a"/></defs><g><g><path d="M105.7 471.7S20.5 537 83.5 631s139.5 82.7 209.9 4.9S373.7 544.5 465 568s148.9-8 137-76.5c-14-81 86.5-121 6.2-201.3s-343.3 63-343.3 63z" fill="#1d2456"/><g clip-path="url(#b)"><path d="M352.6 547s20-390-108-503C116.6 157 114.5 409.1 114 536.5c-.2 43.8 0 175 0 175h129L363.6 591z" fill="#ff8864"/><path d="M411.3 249H197a7.7 7.7 0 0 0-7.7 7.7V711l222-40z" fill="#56ccbe"/><path d="M220.3 288.5a12 12 0 0 1 12 12v15a12 12 0 0 1-12 12 12 12 0 0 1-12-12v-15a12 12 0 0 1 12-12zM267 288.5a12 12 0 0 1 12 12v15a12 12 0 0 1-12 12 12 12 0 0 1-12-12v-15a12 12 0 0 1 12-12zM220.3 353.5a12 12 0 0 1 12 12v15a12 12 0 0 1-12 12 12 12 0 0 1-12-12v-15a12 12 0 0 1 12-12zM267 353.5a12 12 0 0 1 12 12v15a12 12 0 0 1-12 12 12 12 0 0 1-12-12v-15a12 12 0 0 1 12-12zM220.3 418.5a12 12 0 0 1 12 12v15a12 12 0 0 1-12 12 12 12 0 0 1-12-12v-15a12 12 0 0 1 12-12zM267 418.5a12 12 0 0 1 12 12v15a12 12 0 0 1-12 12 12 12 0 0 1-12-12v-15a12 12 0 0 1 12-12z" fill="#1d2456"/><path d="M289.3 123.5h244.6a7.7 7.7 0 0 1 7.7 7.7v546.3h-260V131.2a7.7 7.7 0 0 1 7.7-7.7z" fill="url(#a)"/><path fill="#1d2456" d="M301.1 123.5h1v554h-1zM321.1 123.5h1v554h-1zM341.1 123.5h1v554h-1zM361.1 123.5h1v554h-1zM381.1 123.5h1v554h-1zM401.1 123.5h1v554h-1zM421.1 123.5h1v554h-1zM441.1 123.5h1v554h-1zM461.1 123.5h1v554h-1zM481.1 123.5h1v554h-1zM501.1 123.5h1v554h-1zM521.1 123.5h1v554h-1z"/><path d="M496.4 91.5H416v-89h-12v89h-81.3a7.7 7.7 0 0 0-7.7 7.7v24.3h189V99.2a7.7 7.7 0 0 0-7.7-7.7z" fill="url(#c)"/><path fill="#1d2456" opacity=".1" style="isolation:isolate" d="M264.1 249.5h18v422h-18z"/></g></g></g></svg>