<svg xmlns="http://www.w3.org/2000/svg" viewBox="0 0 700 700"><g><g><path d="M683.6 470.2c-1.5-97.3-103.6-161-192-158.2-49.4 1.5-85.2 22.2-122.9 52.3-17.2 13.7-34 28-52.4 40a347 347 0 0 1-29.3 17.3c-3.5 1.9-33.3 15.4-14.5 7.5a604.3 604.3 0 0 1-116.4 35.6 134.9 134.9 0 0 0-50.5 20.7C48 530.1 82 621 155.9 613.1c29.6-3.2 56.5-21.5 85.7-27.7 27-5.8 54.9-7.7 82.5-8.1 69-1 130.7 27.7 198.3 33 84.8 6.8 162.6-51.6 161.2-140z" fill="#1d2456"/><path d="M187.8 273z" fill="#4161f9"/><path d="M604.5 405.6c-1.8-118.4-100.1-213-215.7-223-80.2-7-152.2 28.6-201.5 91-61.7 82.2-65.2 200-.7 282 7 9 24.3 30.2 34.9 35 6.4 0 29.2-6.5 38.4-7.9a508 508 0 0 1 77.4-5.1c53 .1 96.7 22.4 148 26.5 16.2 1.3 19.5.1 33.4-11.5a238 238 0 0 0 50.3-58c23.2-38 36.2-84.4 35.5-129z" fill="#354ab7"/><path d="M36.6 615.4C-9 639 30.7 703.1 74.6 680c44.6-23.6 7-87.8-38-64.6z" fill="#1d2456"/><path d="M403 241.8c-2-15.2-17.8-16-29-21.2-14.9-6.9-15-14.2-24.6-25-12.4-14.1-16.6-11-37-6a237.9 237.9 0 0 0-45.5 17c-29 14-56.8 35.7-77 60.8-15.6 19.4 1.5 22.8 15.5 39.4 18.6 21.9 23.5 43.3 51 58.2-12.5 2.7-25.7 18.3-30.5 29.1-4.5 10-13 37.1-10.5 49 3.3 15.4 19.6 23 31.5 31.2 30.2 20.7 44 24.8 48.5 62.9 1 8.3 1.3 19.6 2.6 28 2.6 17 14.4 12.5 16.9 12.1a115 115 0 0 1 17.7 0c-.5-26.8 13.6-48.6 26.5-71.2 12.3-21.6 39-55.1 33.4-81.3-6.6-30.5-49-47-73-58.2a214.3 214.3 0 0 1-58.2-40.8c16.5-6.6 27-18.5 41.8-26.7 14.6-8 32.1-8.5 48-12.2 23.6-5.5 59-12.7 51.9-45.1z" fill="#5b71ce"/><path d="M504 224.7a52.1 52.1 0 0 0-2.4 6.5l-.6 2.3-1 3.7a42.3 42.3 0 0 0-1.1 8.3 21 21 0 0 0 2.6 12 27.5 27.5 0 0 0 5.7 6.9c2.8 2.2 5.6 4.6 8.8 6.1a90.5 90.5 0 0 0 10.3 4 50.6 50.6 0 0 0 7.5 1.7 41.9 41.9 0 0 0 7.7.8c1.2 0 2.4-.2 3.5-.3 4-.3 7.9-.7 11.7-1.3l1.4-.2-9.3-12.3-4.5-5.5c-1.2-1.5-2.3-3-3.6-4.4l-1-1.1a4217 4217 0 0 1-16.7-13.2L504.4 224l-.3.7z" fill="#6e96ff"/><path d="M521.4 239.2l-1 3.1a14.8 14.8 0 0 0-.4 3.5 10.8 10.8 0 0 0 1.4 4.6 6.5 6.5 0 0 0 2.4 2.4 7.1 7.1 0 0 0 1.2.5 7.6 7.6 0 0 0 .8 2.2 8 8 0 0 0 11 2.9l1.6-1.3a9.6 9.6 0 0 0 .7-.8 7.8 7.8 0 0 0 2.3-.2h.2l1.3-.2h.1l-2.4-2.9-1-1a4217 4217 0 0 1-16.7-13.3l-1.2-1zm20.8 16.7z" fill="#6e96ff"/><path d="M604.3 408.8c0-7.8.8-15.6-.2-23.4-6-47.9-27.1-113.8-87.4-86.7-27.7 12.4-41 53-35.6 81.5 6 30.8 41.5 42.6 44.4 75.4 2.6 28.5-26.1 71.3-5.1 96.8 13 16 26.2 13 36.1.6 33.6-41.6 47.4-94.7 47.8-144.2z" fill="#5b71ce"/><path d="M321.8 386.2c-5.9-30-32-40.8-55.2-30.9-15.9 6.8-29.6 10.8-36.2 29-2.1 5.8-5.3 39 11 33.8a41.2 41.2 0 0 1 8-31.2c5.7-7 11.1-9.7 19.9-11.9.1 0 19.6-1.6 17.1-2.2 43.7 12-3.4 80.8-21 94.6 17.2 16.7 24.4 4.4 38.3-14.4 13.4-18.3 22.6-44 18.1-66.8zM589.1 332.8l-.6 1.1-1 1.6-1.5 2.5-3.1 5.1-3.6 5.3-5.5 8a83.1 83.1 0 0 1-4.1 4.6 27 27 0 0 1-2 2l1.3 1.3 9.6 8.7 3.5-3.1a344 344 0 0 0 8-7.4l1.2-1.1 6.6-7.6-.8-1.9c-1-2.4-1.9-5-2.7-7.5L592 337l-1.2-3.6-.7-2-1 1.3zm-15.8 24l-.2.4zM530.4 245.3c-5 7.8-7.6 36.7-1.7 43.8 7.5 9.4 10.3 1.6 15.1-6.4 2.7-4.5 6.4-13.9 5.4-18a99.6 99.6 0 0 0-18.8-19.4z" fill="#161616" opacity=".2" style="isolation:isolate"/><path d="M604.4 405.7c-65.9 182-272.6 85.7-405 166.2 4.5 4 13.5 15.2 19.3 17.1 1 .4 1.4 2.3 4.7 1.6 11.3-2.5 29.9-7.1 38.8-8.4 32-4.5 63.6-6.3 95.9-3.4 27 2.3 54 11.8 80.6 17.7 23.7 4.5 55.5 13.7 71.3 3.4 67.3-55.5 76.7-93.4 88.5-138.6 5.7-21.7 5.9-55.6 5.9-55.6z" fill="#381668" opacity=".2" style="isolation:isolate"/><path d="M346.2 203.7a26 26 0 0 1-13.2-9.5 25.7 25.7 0 0 0 13.2 9.5z" fill="#ea5a5a"/><path d="M379.4 182.2v1.4a25.8 25.8 0 0 1-50.5 1.6l-5 1.5c-2.3.7-4.6 1.3-7 1.8l-3.1.5a45.8 45.8 0 0 1-5.7.9h-.4a15.3 15.3 0 0 1-7.2.3l-1.8.3v2.6a88.8 88.8 0 0 0 1.4 13.6 43 43 0 0 0 1.2 4.5 56.5 56.5 0 0 1 2.7 5.2l3.3 8 1.5 3 .1.3 1.2 2.3.1.2.3.6a430.8 430.8 0 0 0 11.3 16.5l6 7v.2l2 2.4a140.1 140.1 0 0 0 9.8 10.5l1 1 10.4 10 1.1 1 .6-.4 3.1-2.2.3-.3c.8-.5 1.6-1 2.4-1.7a12.6 12.6 0 0 1 2-1.4l.8-.7c.7-.6 1.3-1 1.8-1.6a332 332 0 0 0 8.4-8.2l2.8-2.8 5.8-5.8a57 57 0 0 0 4-4.9l5.2-6.7 1.1-1.6.2-.2 4.9-6.7a134.5 134.5 0 0 0 5.5-13.8 146.9 146.9 0 0 0 4.3-15.6l.6-3.2v-.5c.6-3.3 1.2-7.2 1.5-11.2a44.3 44.3 0 0 0 .1-4.9l-3.3-.6a15.3 15.3 0 0 1-2.5-.7l-1-.4H398l-5.1-.2c-2.4 0-4.8-.4-7.2-.6l-6.1-.6v.3z" fill="#161616" opacity=".2" style="isolation:isolate"/><path d="M405.7 94.6c-10.2-52-62.9-96-116.2-73.4-45.7 19.4-65.4 78.9-54 124.7 7.2 29 25.8 54.2 44.4 77 8 10 19.2 27 31.6 32.4 12.6 5.4 13.7 3.6 26.7-6.5 44.8-34.7 78.9-96.4 67.5-154.2zm-83.9-34.2c53.4 0 53.4 83.2-1.4 79.3-51.5-3.7-51.8-79.3 1.4-79.3z" fill="#ff8864"/><path d="M310.4 45.4c-37.3 6.2-56 60.9-16.7 83.6-23.6-27.5-9.3-58 12.5-66 23-8.2 55.4 1.7 55.4 41.4 4.4-52-36.9-60.4-51.1-59zM388.1 55.8a165.2 165.2 0 0 1 6.4 85.1 144.6 144.6 0 0 1-10.8 34.4 159.6 159.6 0 0 1-9.5 16.8c-1 1.7-13.1 17.7-6.8 9.5a221.8 221.8 0 0 1-56.8 53c15 8.6 19.5.7 35.4-12.2 14.7-12 26.8-27 37-43.4 15-24.3 23.8-50.2 24.8-78.4.4-13-2-31.4-7.4-43.7-2.3-5.3-13.1-26.4-13.8-24.6z" fill="#d5342c" opacity=".4" style="isolation:isolate"/><path d="M552.3 212.8c-44.6 1.3-62.5 55.8-50.2 92.2 9 26.8 47.6 64.4 46 62.9 47.7-28.5 57.2-61 62.3-98.8-3.3-29.4-26.8-57-58.1-56.3zm-17.5 73.6c-32.2-26.6 25.4-81.2 46.9-29.2 1.3 3.4.9 13.2-.4 18.3-5.2 20-32 25.7-46.5 11z" fill="#56ccbe"/><path d="M535.2 286.6c-24.6-28.6 26.4-67.6 47-27.8-3.8-21.7-23-26.6-35.8-23.1-17.4 4.7-32.4 34.9-11.2 51zM605.4 259.3c5 25.7-4.8 53-20.4 74a135.6 135.6 0 0 1-36.9 34.5c7 10.2 14.6-1.5 21.1-7.5 24.7-22.8 46-55.8 41.2-90.8-.1-7.8-5.5-24-12.9-32.8 0 0 7.5 20.5 7.9 22.6z" fill="#45afa0"/><path d="M246 402.7l-.5-1a1.9 1.9 0 0 1-.4-.1l.9 1z" fill="#d5342c" opacity=".4" style="isolation:isolate"/><path d="M260 342.4c-34.4 1-50.4 42-42.7 71.4 6 23.3 40.7 56.9 39.3 55.6 39-23.6 48.4-52.8 51-80.9-2.7-24-21.9-46.7-47.6-46.1zm-14.3 60.3c-31.1-22.5 25.2-68.5 38.4-24 .7 2.3 1 11.2-.3 14.9a22.9 22.9 0 0 1-38 9z" fill="#56ccbe"/><path d="M246 402.9c-19.6-31 27-51.2 37.9-24.2-4.5-19.2-19.9-26.3-37.9-14.2-2.9 2-22.6 21.6 0 38.4zM296.2 360.5c.2 0 5.6 17 5.9 18.7a81.7 81.7 0 0 1-15.3 62 111.6 111.6 0 0 1-30.2 28.2c5.7 7 7.3 1.3 13.7-2.7 24-15.3 40.3-50.4 37.4-77.9-.9-4.2-.7-12.6-11.5-28.3z" fill="#45afa0"/></g></g></svg>