<svg width="64" height="64" viewBox="0 0 64 64" fill="red" xmlns="http://www.w3.org/2000/svg">
<g clip-path="url(#clip0_147_16694)">
<circle cx="32" cy="32" r="32" fill="#00ff0000"/>
<path d="M21.0248 23.715C18.0683 23.715 16.59 23.715 15.6716 24.6334V24.6334C14.7531 25.5519 14.7531 27.0301 14.7531 29.9866V42.524C14.7531 43.9951 14.7531 44.7306 15.0743 45.1518C15.3247 45.4801 15.6946 45.6964 16.1035 45.7537C16.6281 45.8272 17.2691 45.4666 18.5513 44.7453L21.0686 43.3294C21.7805 42.9289 22.1365 42.7287 22.5273 42.6263C22.918 42.524 23.3264 42.524 24.1433 42.524H34.7901C36.5769 42.524 37.4703 42.524 38.1502 42.1705C38.7224 41.8731 39.189 41.4066 39.4864 40.8344C39.8398 40.1545 39.8398 39.2611 39.8398 37.4743H27.2964C24.3399 37.4743 22.8617 37.4743 21.9432 36.5559C21.0248 35.6374 21.0248 32.1592 21.0248 29.2027V23.715Z" fill="#818283"/>
<path fill-rule="evenodd" clip-rule="evenodd" d="M20.3755 19.1554C19.457 20.0739 19.457 21.5521 19.457 24.5086V33.1321C19.457 36.0886 19.457 37.5669 20.3755 38.4853C21.294 39.4038 22.7722 39.4038 25.7287 39.4038H38.319C39.178 39.4038 39.6074 39.4038 40.0164 39.5165C40.4254 39.6292 40.7942 39.8492 41.5318 40.2892L41.5319 40.2892L44.5345 42.0803C46.6105 43.3186 47.6485 43.9377 48.436 43.504C48.4479 43.4974 48.4597 43.4907 48.4715 43.4838C49.2474 43.0297 49.2474 41.8211 49.2474 39.4038V24.5086C49.2474 21.5521 49.2474 20.0739 48.329 19.1554C47.4105 18.2369 45.9323 18.2369 42.9758 18.2369H25.7287C22.7722 18.2369 21.294 18.2369 20.3755 19.1554ZM26.5127 31.5642C27.8116 31.5642 28.8645 30.5113 28.8645 29.2124C28.8645 27.9134 27.8116 26.8605 26.5127 26.8605C25.2138 26.8605 24.1608 27.9134 24.1608 29.2124C24.1608 30.5113 25.2138 31.5642 26.5127 31.5642ZM36.7041 29.2124C36.7041 30.5113 35.6511 31.5642 34.3522 31.5642C33.0533 31.5642 32.0004 30.5113 32.0004 29.2124C32.0004 27.9134 33.0533 26.8605 34.3522 26.8605C35.6511 26.8605 36.7041 27.9134 36.7041 29.2124ZM42.1918 31.5642C43.4907 31.5642 44.5437 30.5113 44.5437 29.2124C44.5437 27.9134 43.4907 26.8605 42.1918 26.8605C40.8929 26.8605 39.8399 27.9134 39.8399 29.2124C39.8399 30.5113 40.8929 31.5642 42.1918 31.5642Z" fill="white"/>
</g>
<defs>
<clipPath id="clip0_147_16694">
<rect width="64" height="64" fill="#000000"/>
</clipPath>
</defs>
</svg>
